
<svg xmlns="http://www.w3.org/2000/svg" aria-hidden="true" style="position:absolute;width:0;height:0;overflow:hidden">
  <defs>
    <symbol id="icon-Logo" viewBox="0 0 152 32">
      <path fill="#fff" d="M2.072 25.756V5.643H15.86v3.402H6.133v4.761h8.396v3.402H6.133v8.547H2.072zm54.672 0V5.643h8.547c2.149 0 3.709.183 4.678.549.979.357 1.761.997 2.346 1.921s.878 1.98.878 3.169c0 1.509-.444 2.758-1.331 3.745-.887.979-2.213 1.596-3.979 1.852.878.512 1.601 1.075 2.168 1.688.576.613 1.349 1.701 2.319 3.265l2.456 3.924h-4.857l-2.936-4.377c-1.043-1.564-1.756-2.547-2.14-2.95-.384-.412-.791-.691-1.221-.837-.43-.155-1.111-.233-2.044-.233h-.823v8.396h-4.061zm4.061-11.607h3.005c1.948 0 3.165-.082 3.649-.247s.864-.448 1.139-.851c.274-.402.412-.906.412-1.509 0-.677-.183-1.221-.549-1.633-.357-.421-.864-.686-1.523-.796-.329-.046-1.317-.069-2.963-.069h-3.169v5.104zM77.09 25.756V5.643h4.061v8.931l8.204-8.931h5.46l-7.573 7.834 7.985 12.279h-5.255l-5.529-9.439-3.292 3.361v6.078H77.09zm38.387 0h-4.418l-1.756-4.569h-8.04l-1.66 4.569h-4.308l7.834-20.113h4.294l8.053 20.113zM108 17.799l-2.772-7.463-2.716 7.463H108zm8.616 1.413 3.952-.384c.237 1.326.717 2.3 1.44 2.922.732.622 1.716.933 2.95.933 1.307 0 2.291-.274 2.949-.823.667-.558 1.001-1.207 1.001-1.948 0-.476-.142-.878-.425-1.207-.274-.338-.759-.631-1.454-.878-.476-.165-1.559-.457-3.252-.878-2.177-.54-3.704-1.203-4.582-1.989-1.235-1.107-1.852-2.456-1.852-4.047 0-1.024.288-1.98.864-2.867.585-.896 1.422-1.578 2.511-2.044 1.097-.466 2.419-.7 3.965-.7 2.524 0 4.422.553 5.694 1.66 1.281 1.107 1.953 2.584 2.017 4.431l-4.061.178c-.174-1.034-.549-1.774-1.125-2.223-.567-.457-1.422-.686-2.565-.686-1.179 0-2.103.242-2.772.727-.429.311-.645.727-.645 1.248 0 .476.201.883.604 1.221.512.43 1.756.878 3.731 1.344s3.434.951 4.376 1.454c.951.494 1.692 1.175 2.223 2.044.539.86.809 1.925.809 3.197 0 1.152-.32 2.232-.96 3.238s-1.546 1.756-2.717 2.25c-1.171.485-2.629.727-4.376.727-2.543 0-4.496-.585-5.858-1.756-1.363-1.18-2.177-2.895-2.442-5.145zm24.297 6.544V9.046h-5.968V5.644h15.984v3.402h-5.954v16.71h-4.061z" style="fill:var(--color1, #fff)"/>
      <path fill="#61d22d" d="M19.637 4.675c-.265 3.504-.445 6.064-.453 6.338 0 .172.047.336.047.336.117.663.414 1.124.554 1.342.515.796 1.218 1.264 1.553 1.46l-.773 11.676a1.347 1.347 0 0 0 1.241 1.421 1.34 1.34 0 0 0 1.413-1.194c-.273-3.98-.546-7.961-.82-11.934.172-.101 1.257-.757 1.779-1.717a3.09 3.09 0 0 0 .398-1.194 2.16 2.16 0 0 0 .016-.414c-.047-.312-.226-2.747-.476-6.127a.47.47 0 0 0-.5-.297c-.219.039-.32.25-.336.265l.164 5.214c-.039.234-.203.421-.398.468-.265.055-.585-.172-.632-.531l-.101-4.948a.5.5 0 0 0-.421-.468.497.497 0 0 0-.539.429l-.164 5.112c-.047.219-.203.39-.398.429-.258.055-.539-.109-.632-.398l.234-5.245a.41.41 0 0 0-.297-.351c-.195-.047-.414.086-.468.312l.008.016zM51.778 3.31c-.125-.031-.289.242-.398.382-.219.304-.679 1.046-1.53 3.036-.226.531-.351 1.124-.507 1.975-.211 1.155-.429 3.075-.109 5.588 0 .039 0 .702.546 1.022.328.203.671.156.773.14l-.695 10.029c-.07.976.507 1.709 1.03 1.764.57.055 1.381-.671 1.35-1.803-.094-3.364-.179-5.401-.351-10.154-.078-2.217-.031-9.124.055-10.95.008-.226.047-.983-.156-1.038l-.008.008z" style="fill:var(--color2, #61d22d)"/>
      <path fill="none" stroke="#61d22d" stroke-miterlimit="10" stroke-width="3.122" d="M36.448 25.834c5.539 0 10.029-4.49 10.029-10.029S41.987 5.776 36.448 5.776s-10.029 4.49-10.029 10.029 4.49 10.029 10.029 10.029z" style="stroke:var(--color2, #61d22d)"/>
      <path fill="#61d22d" d="M36.449 21.299a5.495 5.495 0 1 0 0-10.99 5.495 5.495 0 0 0 0 10.99z" style="fill:var(--color2, #61d22d)"/>
    </symbol>
    <symbol id="icon-Login-Icon-Container" viewBox="0 0 31 32">
      <path d="M22.117 16.905c.5-.5.5-1.31 0-1.81l-8.146-8.146a1.28 1.28 0 1 0-1.81 1.81L19.402 16l-7.241 7.241a1.28 1.28 0 1 0 1.81 1.81l8.146-8.146zM8.777 16v1.28h12.434v-2.56H8.777V16z"/>
      <path stroke-width="2.56" d="M.807 20.914a15.364 15.364 0 0 0 15.979 10.38A15.36 15.36 0 1 0 2.726 7.265l.935.646a14.22 14.22 0 0 1 16.873-5.159 14.221 14.221 0 0 1 4.645 23.538 14.227 14.227 0 0 1-17.568 1.638 14.227 14.227 0 0 1-5.728-7.378l-1.077.364z"/>
    </symbol>
    <symbol id="icon-icon-h1" viewBox="0 0 44 32">
      <path fill="#61d22d" d="M.603 1.813C.253 6.463.012 9.859 0 10.226c-.006.229.06.446.06.446.163.875.543 1.49.736 1.785.681 1.062 1.616 1.671 2.063 1.936-.338 5.163-.681 10.331-1.019 15.494-.06.977.694 1.827 1.646 1.888a1.788 1.788 0 0 0 1.876-1.58L4.276 14.357c.223-.133 1.665-1.001 2.364-2.28.145-.265.446-.814.525-1.58.024-.253.03-.452.018-.549-.06-.41-.301-3.643-.633-8.13-.121-.277-.398-.44-.663-.398-.295.048-.428.326-.44.35l.223 6.918c-.048.314-.265.567-.531.615-.356.072-.778-.223-.838-.706l-.133-6.568a.656.656 0 0 0-.561-.615.66.66 0 0 0-.718.573l-.223 6.785c-.06.29-.265.513-.531.573-.338.072-.718-.145-.838-.531l.308-6.96c-.03-.229-.187-.416-.392-.458-.259-.06-.549.115-.621.416h.012zM43.248.003c-.169-.042-.386.32-.525.507-.284.398-.899 1.387-2.033 4.029-.301.706-.471 1.496-.676 2.624-.283 1.538-.573 4.077-.145 7.418 0 .048.006.929.724 1.363.434.265.887.211 1.025.187l-.923 13.305c-.09 1.291.676 2.268 1.363 2.334.754.078 1.833-.893 1.791-2.394-.126-4.469-.241-7.171-.464-13.468-.103-2.937-.036-12.105.066-14.529.012-.296.06-1.309-.205-1.375z" style="fill:var(--color1, #61d22d)"/>
      <path fill="#1e1f25" stroke="#61d22d" stroke-miterlimit="10" stroke-width="1.58" d="M22.912 29.888c7.348 0 13.304-5.957 13.304-13.305S30.26 3.278 22.912 3.278 9.608 9.235 9.608 16.583s5.956 13.305 13.304 13.305z" style="fill:var(--color2, #1e1f25);stroke:var(--color1, #61d22d)"/>
      <path fill="#61d22d" d="M22.912 23.875a7.291 7.291 0 0 0 7.291-7.292 7.291 7.291 0 1 0-14.582 0 7.291 7.291 0 0 0 7.291 7.292z" style="fill:var(--color1, #61d22d)"/>
    </symbol>
    <symbol id="icon-hero-menus" viewBox="0 0 31 32">
<path stroke-linejoin="round" stroke-linecap="round" stroke-miterlimit="4" stroke-width="2.56" d="M8.96 9.6l12.8 12.8"></path>
<path stroke-linejoin="round" stroke-linecap="round" stroke-miterlimit="4" stroke-width="2.56" d="M21.76 9.6v12.8h-12.8"></path>
</symbol>
<symbol id="icon-email" viewBox="0 0 33 32">
      <path d="M7.044 25.333c-.614 0-1.127-.205-1.537-.616s-.616-.924-.617-1.539V8.821c0-.614.206-1.127.617-1.537s.924-.616 1.536-.617h19.693c.613 0 1.125.206 1.536.617s.616.924.617 1.537V23.18c0 .613-.206 1.126-.617 1.537s-.924.617-1.536.616H7.044zM27.556 9.18l-10.069 6.592c-.094.049-.189.09-.285.124s-.201.049-.312.049-.215-.016-.312-.049a1.877 1.877 0 0 1-.285-.124L6.224 9.179v14c0 .24.077.437.231.591s.351.231.591.231h19.692c.239 0 .436-.077.589-.231s.231-.351.231-.591V9.18zm-10.667 5.487L27.145 8H6.633l10.256 6.667zM6.223 9.461z"/>
    </symbol>
    <symbol id="icon-tel" viewBox="0 0 33 32">
      <path stroke-linecap="round" stroke-linejoin="round" stroke-width="1.333" d="M21.689 19.363c-3.193 3.36-11.339-4.712-8.133-8.085 1.957-2.06-.253-4.413-1.477-6.145C9.782 1.886 4.74 6.369 4.892 9.221c.484 8.995 10.213 19.653 19.635 18.723 2.947-.291 6.333-5.613 2.953-7.559-1.691-.973-4.012-2.893-5.791-1.023"/>
    </symbol>
  </defs>
</svg>
