<svg width="111" height="81" viewBox="0 0 111 81" fill="none" xmlns="http://www.w3.org/2000/svg">
<path d="M1.52753 4.58823C0.642134 16.3586 0.0315122 24.9536 0.000981149 25.8848C-0.0142844 26.465 0.153637 27.0145 0.153637 27.0145C0.565806 29.2282 1.52753 30.7853 2.01603 31.5334C3.74104 34.2203 6.10719 35.7622 7.23684 36.4339C6.38197 49.5019 5.51184 62.5852 4.65697 75.6532C4.50431 78.1264 6.41251 80.2789 8.82446 80.4316C11.1754 80.5843 13.2973 78.8286 13.572 76.4318C12.6561 63.0737 11.7402 49.7157 10.8242 36.3423C11.3891 36.0064 15.0375 33.8081 16.8083 30.5716C17.1747 29.8999 17.938 28.5106 18.1364 26.5718C18.1975 25.9306 18.2128 25.4268 18.1822 25.1826C18.0296 24.1445 17.419 15.9617 16.5794 4.60349C16.274 3.90124 15.5718 3.48905 14.9001 3.59591C14.1521 3.71804 13.8163 4.4203 13.7858 4.48136L14.3506 21.9919C14.2285 22.7858 13.6789 23.4269 13.0072 23.5491C12.1066 23.7323 11.038 22.9842 10.8853 21.7629L10.5495 5.13782C10.5037 4.3287 9.87778 3.67225 9.12977 3.58065C8.2749 3.47378 7.4353 4.11497 7.31317 5.03095L6.74835 22.2056C6.59569 22.9384 6.07666 23.5033 5.40498 23.6559C4.55011 23.8391 3.58838 23.2895 3.28307 22.3125L4.06161 4.69509C3.98529 4.11497 3.58838 3.64171 3.06935 3.53485C2.41294 3.38218 1.68019 3.82491 1.497 4.58823H1.52753Z" fill="#61D22D"/>
<path d="M109.471 0.00859534C109.043 -0.0982693 108.494 0.817713 108.143 1.29097C107.425 2.29855 105.868 4.80224 102.998 11.4889C102.235 13.2751 101.807 15.275 101.288 18.1298C100.571 22.0227 99.8381 28.4499 100.922 36.9074C100.922 37.0296 100.937 39.2585 102.754 40.3576C103.853 41.0294 104.998 40.892 105.349 40.8309L103.013 74.5085C102.784 77.7755 104.723 80.2487 106.463 80.4166C108.371 80.6151 111.104 78.1572 110.997 74.3559C110.677 63.0435 110.387 56.2041 109.822 40.266C109.562 32.8313 109.73 9.62642 109.99 3.48933C110.02 2.74128 110.142 0.176526 109.471 0.00859534Z" fill="#61D22D"/>
<path d="M57.9951 75.6531C76.5937 75.6531 91.6709 60.5751 91.6709 41.9755C91.6709 23.3758 76.5937 8.29785 57.9951 8.29785C39.3965 8.29785 24.3193 23.3758 24.3193 41.9755C24.3193 60.5751 39.3965 75.6531 57.9951 75.6531Z" fill="#1E1F25" stroke="#61D22D" stroke-width="4" stroke-miterlimit="10"/>
<path d="M57.9951 60.4327C68.1881 60.4327 76.4511 52.1692 76.4511 41.9756C76.4511 31.7821 68.1881 23.5186 57.9951 23.5186C47.8021 23.5186 39.5391 31.7821 39.5391 41.9756C39.5391 52.1692 47.8021 60.4327 57.9951 60.4327Z" fill="#61D22D"/>
</svg>
